inDegrees=no
num_controls=7
num_derivatives=13
num_iterations=122
num_multipliers=7
num_parameters=0
num_slacks=7
num_states=26
objective=5.876103
objective_accelerations=0.290262
objective_balance=0.066698
objective_effort=0.380065
objective_height=5.029679
objective_ligament=0.109399
solver_duration=1064.753341
status=Solve_Succeeded
success=true
DataType=double
version=3
OpenSimVersion=4.4-2022-07-23-0e9fedc
endheader
time	/jointset/ground_pelvis/pelvis_tilt/value	/jointset/ground_pelvis/pelvis_tx/value	/jointset/ground_pelvis/pelvis_ty/value	/jointset/hip_r/hip_flexion_r/value	/jointset/hip_r/hip_adduction_r/value	/jointset/hip_r/hip_rotation_r/value	/jointset/back/lumbar_extension/value	/jointset/patellofemoral_r/patellar_flexion_r/value	/jointset/knee_r/knee_flexion_r/value	/jointset/knee_r/knee_adduction_r/value	/jointset/knee_r/knee_rotation_r/value	/jointset/ankle_r/ankle_angle_r/value	/jointset/subtalar_r/subtalar_angle_r/value	/jointset/ground_pelvis/pelvis_tilt/speed	/jointset/ground_pelvis/pelvis_tx/speed	/jointset/ground_pelvis/pelvis_ty/speed	/jointset/hip_r/hip_flexion_r/speed	/jointset/hip_r/hip_adduction_r/speed	/jointset/hip_r/hip_rotation_r/speed	/jointset/back/lumbar_extension/speed	/jointset/patellofemoral_r/patellar_flexion_r/speed	/jointset/knee_r/knee_flexion_r/speed	/jointset/knee_r/knee_adduction_r/speed	/jointset/knee_r/knee_rotation_r/speed	/jointset/ankle_r/ankle_angle_r/speed	/jointset/subtalar_r/subtalar_angle_r/speed	/forceset/tau_hip_flexion_r	/forceset/tau_hip_adduction_r	/forceset/tau_hip_rotation_r	/forceset/tau_knee_flexion_r	/forceset/tau_ankle_angle_r	/forceset/tau_subtalar_angle_r	/forceset/tau_lumbar_extension	lambda_cid13_p0	lambda_cid14_p0	lambda_cid14_p1	lambda_cid14_p2	lambda_cid14_p3	lambda_cid14_p4	lambda_cid14_p5	/jointset/ground_pelvis/pelvis_tilt/accel	/jointset/ground_pelvis/pelvis_tx/accel	/jointset/ground_pelvis/pelvis_ty/accel	/jointset/hip_r/hip_flexion_r/accel	/jointset/hip_r/hip_adduction_r/accel	/jointset/hip_r/hip_rotation_r/accel	/jointset/back/lumbar_extension/accel	/jointset/patellofemoral_r/patellar_flexion_r/accel	/jointset/knee_r/knee_flexion_r/accel	/jointset/knee_r/knee_adduction_r/accel	/jointset/knee_r/knee_rotation_r/accel	/jointset/ankle_r/ankle_angle_r/accel	/jointset/subtalar_r/subtalar_angle_r/accel	gamma_cid13_p0	gamma_cid14_p0	gamma_cid14_p1	gamma_cid14_p2	gamma_cid14_p3	gamma_cid14_p4	gamma_cid14_p5
0.5	-0.05485480463321013	0.08117016339362733	0.8855953818156375	0.5549942191242168	-0.2249336194608027	-0.1557990428005527	-0.2983921561487555	0.598054102241141	0.5980541022414443	0.04258485616338621	0.1745000107748327	0.2677557981702711	0.06525836697387295	-0.1464041980605981	-0.04112688014607507	-0.2386397718470454	1.051688687898412	-0.005075981209055808	0.204561460228421	-0.6045722508800556	1.427089616242919	1.427089616243023	-0.2770829083028628	-0.000101423084465814	0.6062732837867698	0.1737040144860303	-0.04423536290296098	-0.01106680190252412	0.004720570364443456	-0.3092505466026478	0.02205740219622883	-0.01135352973736501	0.1123838705481428	-36.66868361076278	-35.40717404424075	-6.846938608560862	-3.34116007687739	9.604498391546585	-675.4992228455773	56.45937438043403	-0.02852148212525069	0.08141527439114761	-0.2724347975484842	-0.5337794066282872	-0.08236758107528974	-0.4918694530213095	0.9722294762022851	-0.9512643007679679	-0.951264300767968	0.3678077499073129	-0.007824189155898229	-0.5169827889452879	-0.1065409656460534	-8.27864629478313e-08	-9.869918054980306e-08	5.436989263151117e-07	-9.599610396400773e-07	-1.558212997301029e-09	-1.148729717960623e-07	8.890854804851371e-07
0.51	-0.05632025736141421	0.0807630516148256	0.8831958311369318	0.5654830422011087	-0.2249891603362087	-0.1537772897793948	-0.3043882597333148	0.612275435090738	0.6122754350911024	0.03983438312666655	0.1744987358104027	0.2737916677873163	0.06698882641072501	-0.1466675766078886	-0.04028808140301869	-0.2412172909392762	1.045927578970302	-0.006033822365946509	0.1997819925590584	-0.5945696852188832	1.416972138900175	1.416972138900195	-0.2729837136283308	-0.0001436132742664055	0.6008176574693247	0.172354921808804	-0.04855787801393149	-0.009455944222693346	0.005280597645045607	-0.3114227355831101	0.01725071448585272	-0.01057667193479753	0.1164707019897836	-35.99716572674298	-37.02410536715561	-6.876974022479382	-3.240066952228374	10.17763851346985	-677.7403723847511	56.32713388082298	-0.02243891200657794	0.08622168335079426	-0.2424721283121934	-0.6195394074397755	-0.1028613128714932	-0.4722010469598181	1.02608723316296	-1.07269580606319	-1.07269580607577	0.4351810737247754	-0.001081993045380396	-0.5723081590395116	-0.1540694140846696	-7.426401787664295e-08	-9.504571130192691e-08	4.466207059781816e-07	-9.259181533251298e-07	6.030136239032044e-09	-1.092122330692814e-07	8.101272496161343e-07
0.52	-0.05778778244927897	0.08036454972527232	0.8807720929346531	0.5759098016344371	-0.2250543534091468	-0.1518035745595564	-0.3102819742368375	0.6263894518959195	0.6263894518963149	0.03712574318620134	0.1744973058322154	0.2797704900200084	0.06870479972174053	-0.146818669994207	-0.03940490229638405	-0.2434772765616406	1.039275959180702	-0.007006420717839787	0.1949538999670463	-0.5840944346741941	1.405626407356004	1.40562640735594	-0.2687162890538577	-0.0001324258301907427	0.5948638069160581	0.1708067893186259	-0.05288039312476155	-0.007845086542923279	0.005840624925470047	-0.3135949245635408	0.01244402677545808	-0.009799814132315274	0.1205575334315628	-35.30413796304393	-38.64960161040074	-6.905017455437977	-3.143280304353898	10.75204111622809	-680.1189632453079	56.2585934173307	-0.006064449930439645	0.09029134710648902	-0.208928103575215	-0.7118815789261513	-0.08531902007575883	-0.5015944375513334	1.066766452905727	-1.196915141053399	-1.19691514105339	0.4014537298953799	0.002851337619431203	-0.6166276361099259	-0.1463489282364423	-6.407411082065549e-08	-8.991107788448893e-08	3.329643668862917e-07	-8.77879415622247e-07	1.439207650378842e-08	-1.014942069774988e-07	7.135032392852046e-07
0.53	-0.05925626357268207	0.07997512614273601	0.8783273745283555	0.5862656361678289	-0.225129208255799	-0.1498780442662727	-0.3160685725661695	0.6403839747466707	0.6403839747469651	0.03446049893842552	0.1744958824940596	0.2856874245021415	0.07040448669401807	-0.1468580506075396	-0.03846966028370076	-0.2454100591076614	1.031741530240116	-0.00796160793093296	0.1901609734561303	-0.5731471586779084	1.393081176663048	1.39308117666304	-0.2643062267157046	-0.0001575939724042145	0.5884508382080448	0.16910500700067	-0.0570527621412532	-0.006177552551229482	0.00642651190980214	-0.3160282488993646	0.008216093742902249	-0.009330071376479314	0.1245511640466823	-34.59249170810815	-40.10457468952533	-7.062825175881175	-2.995830954044621	11.18872581207372	-682.5042423715072	55.97194354878582	4.299081329108088e-05	0.09666747338777205	-0.1770209796656114	-0.7966458325044842	-0.1003066709753308	-0.4669370330992259	1.120419050318083	-1.312863208325224	-1.312863208316789	0.4647166400911707	-0.006148815204222377	-0.6644719089321205	-0.1859905997379921	-5.459629730656874e-08	-6.239100408750046e-08	3.589397084280124e-07	-6.491373832141977e-07	-5.291563120851413e-09	-6.359293644097979e-08	5.938091726082052e-07
